<svg xmlns="http://www.w3.org/2000/svg" viewBox="0 0 100 100">
  <rect width="100" height="100" rx="20" fill="#0a2e1a"/>
  <!-- Shield shape -->
  <path d="M50 15 L78 28 L78 52 C78 68 65 80 50 87 C35 80 22 68 22 52 L22 28 Z" 
        fill="#122518" stroke="#22c864" stroke-width="2.5"/>
  <!-- Oil drop with wave -->
  <ellipse cx="50" cy="55" rx="14" ry="17" fill="#22c864" opacity="0.9"/>
  <path d="M50 28 C50 28 36 46 36 55 C36 63.3 42.3 70 50 70 C57.7 70 64 63.3 64 55 C64 46 50 28 50 28Z" 
        fill="#22c864"/>
  <!-- Wave lines inside drop -->
  <path d="M40 54 Q45 50 50 54 Q55 58 60 54" stroke="#0a2e1a" stroke-width="2" fill="none" stroke-linecap="round"/>
  <path d="M41 60 Q46 56 50 60 Q54 64 59 60" stroke="#0a2e1a" stroke-width="1.5" fill="none" stroke-linecap="round" opacity="0.6"/>
  <!-- Radar ping circle -->
  <circle cx="50" cy="50" r="36" fill="none" stroke="#22c864" stroke-width="1" opacity="0.3"/>
</svg>
